<svg viewBox="0 0 1000 1000" xmlns="http://www.w3.org/2000/svg">
  <defs>
    <radialGradient id="bg_t1002" cx="50%" cy="38%" r="75%">
      <stop offset="0%" stop-color="#2a1b4a"/>
      <stop offset="100%" stop-color="#140a24"/>
    </radialGradient>
    <radialGradient id="body_t1002" cx="35%" cy="28%" r="75%">
      <stop offset="0%" stop-color="#fff3c4"/>
      <stop offset="100%" stop-color="#e0b23c"/>
    </radialGradient>
    <linearGradient id="fin_t1002" x1="0%" y1="0%" x2="0%" y2="100%">
      <stop offset="0%" stop-color="#fff3c4"/>
      <stop offset="100%" stop-color="#e0b23c"/>
    </linearGradient>
    <linearGradient id="horn_t1002" x1="0%" y1="0%" x2="0%" y2="100%">
      <stop offset="0%" stop-color="#ffe1ff"/>
      <stop offset="100%" stop-color="#8ad6ff"/>
    </linearGradient>
    <radialGradient id="gem_t1002" cx="50%" cy="30%" r="70%">
      <stop offset="0%" stop-color="#ffffff"/>
      <stop offset="55%" stop-color="#dff6ff"/>
      <stop offset="100%" stop-color="#9fd8ec"/>
    </radialGradient>
  </defs>

  <rect width="1000" height="1000" fill="url(#bg_t1002)"/>

  <path d="M 640,880 C 760,860 840,780 830,690 C 822,615 760,590 715,610
           C 745,630 760,665 745,700 C 730,735 690,745 660,730
           C 690,760 690,810 640,880 Z"
        fill="#e0b23c" stroke="#0c0c0c" stroke-width="10" stroke-linejoin="round"/>
  <path d="M 620,650 C 660,600 730,585 775,610 C 745,600 705,610 680,635 Z"
        fill="url(#gem_t1002)" stroke="#0c0c0c" stroke-width="7" stroke-linejoin="round"/>

  <g stroke="#0c0c0c" stroke-width="9" stroke-linejoin="round" fill="url(#fin_t1002)">
    <path d="M 430,190 L 470,90 L 500,205 Z"/>
    <path d="M 500,175 L 545,65 L 580,195 Z"/>
    <path d="M 575,195 L 620,100 L 645,225 Z"/>
  </g>

  
  <g stroke="#0c0c0c" stroke-width="9" stroke-linejoin="round">
    <path d="M 250,470 C 150,430 90,470 70,560 C 130,540 180,555 215,600
                C 190,560 205,510 250,470 Z" fill="#3fc9ae" opacity="0.95"/>
    <path d="M 130,500 C 105,530 95,565 100,595" stroke="#0c6a58" stroke-width="5" fill="none" opacity="0.6"/>
    <path d="M 760,470 C 860,430 920,470 940,560 C 880,540 830,555 795,600
                 C 820,560 805,510 760,470 Z" fill="#3fc9ae" opacity="0.95"/>
    <path d="M 880,500 C 905,530 915,565 910,595" stroke="#0c6a58" stroke-width="5" fill="none" opacity="0.6"/>
    
  </g>

  <ellipse cx="500" cy="640" rx="270" ry="230" fill="url(#body_t1002)" stroke="#0c0c0c" stroke-width="11"/>
  <ellipse cx="500" cy="720" rx="150" ry="130" fill="#fff6da" opacity="0.9"/>

  <circle cx="500" cy="380" r="230" fill="url(#body_t1002)" stroke="#0c0c0c" stroke-width="11"/>
  <path d="M 340,230 C 375,195 420,180 455,185" stroke="#ffffff" stroke-width="18" fill="none" stroke-linecap="round" opacity="0.6"/>

  <ellipse cx="500" cy="470" rx="105" ry="70" fill="#fff6da" stroke="#0c0c0c" stroke-width="9"/>
  <ellipse cx="465" cy="470" rx="10" ry="16" fill="#3a2a1a" opacity="0.75"/>
  <ellipse cx="535" cy="470" rx="10" ry="16" fill="#3a2a1a" opacity="0.75"/>
  <path d="M 460,505 Q 500,525 540,505" stroke="#0c0c0c" stroke-width="7" fill="none" stroke-linecap="round"/>
  <ellipse cx="462" cy="452" rx="7" ry="9" fill="url(#gem_t1002)" opacity="0.9"/>
  <ellipse cx="538" cy="452" rx="7" ry="9" fill="url(#gem_t1002)" opacity="0.9"/>

  <g stroke="#0c0c0c" stroke-width="8" stroke-linejoin="round" fill="url(#horn_t1002)">
    <path d="M 330,270 C 300,200 280,140 290,80 C 330,120 355,180 365,255 Z"/>
    <path d="M 670,270 C 700,200 720,140 710,80 C 670,120 645,180 635,255 Z"/>
  </g>

  <circle cx="305" cy="330" r="48" fill="#e0b23c" stroke="#0c0c0c" stroke-width="8"/>
  <circle cx="695" cy="330" r="48" fill="#e0b23c" stroke="#0c0c0c" stroke-width="8"/>
  <circle cx="305" cy="330" r="24" fill="#8c6a14"/>
  <circle cx="695" cy="330" r="24" fill="#8c6a14"/>

  
  <g>
    <circle cx="400" cy="360" r="60" fill="#ffffff" stroke="#0c0c0c" stroke-width="8"/>
    <circle cx="412" cy="368" r="30" fill="#173650"/>
    <circle cx="424" cy="352" r="10" fill="#ffffff"/>
  </g>
  <g>
    <circle cx="600" cy="360" r="60" fill="#ffffff" stroke="#0c0c0c" stroke-width="8"/>
    <circle cx="612" cy="368" r="30" fill="#173650"/>
    <circle cx="624" cy="352" r="10" fill="#ffffff"/>
  </g>

  <path d="M 350,300 C 375,285 400,285 415,298" stroke="#0c0c0c" stroke-width="9" fill="none" stroke-linecap="round"/>
  <path d="M 585,298 C 600,285 625,285 650,300" stroke="#0c0c0c" stroke-width="9" fill="none" stroke-linecap="round"/>

  <circle cx="500" cy="700" r="34" fill="url(#gem_t1002)" stroke="#0c0c0c" stroke-width="7"/>
  <path d="M 488,688 L 500,678 L 512,688 L 505,706 L 495,706 Z" fill="#ffffff" opacity="0.8"/>

  <ellipse cx="330" cy="760" rx="45" ry="60" fill="#e0b23c" stroke="#0c0c0c" stroke-width="9" transform="rotate(-18 330 760)"/>
  <ellipse cx="670" cy="760" rx="45" ry="60" fill="#e0b23c" stroke="#0c0c0c" stroke-width="9" transform="rotate(18 670 760)"/>
</svg>